<?xml version="1.0" encoding="UTF-8" standalone="no"?>
<!-- Created with Inkscape (http://www.inkscape.org/) -->

<svg
   version="1.1"
   id="svg1143"
   xml:space="preserve"
   width="682.66669"
   height="682.66669"
   viewBox="0 0 682.66669 682.66669"
   xmlns="http://www.w3.org/2000/svg"
   xmlns:svg="http://www.w3.org/2000/svg"><defs
     id="defs1147"><clipPath
       clipPathUnits="userSpaceOnUse"
       id="clipPath1157"><path
         d="M 0,512 H 512 V 0 H 0 Z"
         id="path1155" /></clipPath></defs><g
     id="g1149"
     transform="matrix(1.3333333,0,0,-1.3333333,0,682.66667)"><g
       id="g1151"><g
         id="g1153"
         clip-path="url(#clipPath1157)"><g
           id="g1159"
           transform="translate(406.4619,47.7783)"><path
             d="m 0,0 c 0,-7.092 -0.387,-13.022 -1.16,-17.922 -0.774,-4.898 -1.805,-8.895 -3.224,-11.732 -1.289,-2.966 -2.965,-5.029 -4.641,-6.189 -1.805,-1.289 -3.868,-1.933 -6.06,-1.933 h -270.368 c -1.933,0 -3.867,0.644 -5.672,1.933 -1.677,1.16 -3.224,3.223 -4.643,6.189 -1.417,2.837 -2.449,6.834 -3.223,11.732 -0.773,4.9 -1.16,10.83 -1.16,17.922 0,7.22 0.258,13.28 0.902,18.308 0.645,4.899 1.677,8.767 3.095,11.862 1.418,2.966 2.966,5.157 4.771,6.575 1.676,1.418 3.738,2.063 5.93,2.063 h 91.283 v 317.943 l -78.518,-43.32 c -5.673,-2.708 -10.444,-4.513 -14.054,-5.158 -3.739,-0.515 -6.575,0.129 -8.767,2.321 -2.063,2.192 -3.482,5.802 -4.255,11.088 -0.774,5.287 -1.16,12.764 -1.16,22.305 0,6.06 0.129,11.088 0.386,14.956 0.258,3.869 0.903,7.22 1.934,9.928 0.903,2.836 2.321,5.028 4.126,6.833 1.676,1.806 4.126,3.61 7.092,5.674 l 104.949,67.946 c 1.29,1.031 2.836,1.805 4.642,2.449 1.934,0.645 4.383,1.161 7.478,1.547 2.965,0.387 6.962,0.646 11.861,0.775 4.9,0.128 11.218,0.128 19.082,0.128 9.541,0 17.276,-0.128 23.208,-0.516 5.931,-0.387 10.443,-1.031 13.408,-1.934 3.095,-0.902 5.029,-2.062 6.06,-3.61 1.032,-1.547 1.548,-3.351 1.548,-5.673 V 38.808 h 79.936 c 2.321,0 4.384,-0.645 6.318,-2.063 1.934,-1.418 3.481,-3.609 4.899,-6.575 1.419,-3.095 2.45,-6.963 3.095,-11.862 C -0.258,13.28 0,7.22 0,0"
             style="fill:#cbe558;fill-opacity:1;fill-rule:evenodd;stroke:none"
             id="path1161" /></g><g
           id="g1163"
           transform="translate(212.2954,290.5576)"><path
             d="M 0,0 -0.003,113.972 -78.522,70.651 c -5.673,-2.708 -10.443,-4.512 -14.054,-5.157 -3.738,-0.515 -6.575,0.129 -8.767,2.32 -2.063,2.193 -3.481,5.802 -4.255,11.088 -0.773,5.287 -1.16,12.765 -1.16,22.306 0,6.06 0.13,11.088 0.387,14.956 0.258,3.868 0.903,7.22 1.934,9.928 0.903,2.836 2.321,5.028 4.126,6.833 1.676,1.805 4.125,3.61 7.091,5.674 l 104.949,67.946 c 1.29,1.03 2.837,1.805 4.642,2.449 1.934,0.645 4.384,1.16 7.478,1.547 2.965,0.387 6.963,0.646 11.862,0.774 4.899,0.128 11.217,0.128 19.081,0.128 9.541,0 17.278,-0.128 23.208,-0.515 5.931,-0.387 10.444,-1.032 13.409,-1.934 3.094,-0.902 5.028,-2.062 6.059,-3.61 1.032,-1.547 1.547,-3.353 1.547,-5.673 v -403.683 h 79.938 c 2.321,0 4.383,-0.644 6.318,-2.062 1.934,-1.418 3.48,-3.61 4.899,-6.575 1.418,-3.095 2.45,-6.963 3.094,-11.863 0.645,-5.027 0.903,-11.088 0.903,-18.307 0,-7.092 -0.387,-13.023 -1.161,-17.922 -0.773,-4.899 -1.804,-8.896 -3.223,-11.733 -1.289,-2.965 -2.965,-5.028 -4.642,-6.188 -1.805,-1.289 -3.867,-1.934 -6.058,-1.934 H -91.286 c -1.934,0 -3.868,0.645 -5.673,1.934 -1.676,1.16 -3.224,3.223 -4.642,6.188 -1.418,2.837 -2.449,6.834 -3.223,11.733 -0.774,4.899 -1.161,10.83 -1.161,17.922 0,7.219 0.258,13.28 0.903,18.307 0.645,4.9 1.676,8.768 3.094,11.863 1.419,2.965 2.966,5.157 4.771,6.575 1.676,1.418 3.739,2.062 5.931,2.062 H -0.003 V -90"
             style="fill:none;stroke:#000000;stroke-width:20;stroke-linecap:round;stroke-linejoin:round;stroke-miterlimit:2.613;stroke-dasharray:none;stroke-opacity:1"
             id="path1165" /></g><g
           id="g1167"
           transform="translate(212.292,245.5576)"><path
             d="M 0,0 H 0.007"
             style="fill:none;stroke:#000000;stroke-width:20;stroke-linecap:round;stroke-linejoin:round;stroke-miterlimit:2.613;stroke-dasharray:none;stroke-opacity:1"
             id="path1169" /></g></g></g></g></svg>
