<svg height="512" viewBox="0 0 128 128" width="512" xmlns="http://www.w3.org/2000/svg"><g><g><path d="m78.808 86.5h-29.616a25 25 0 0 0 -25 25v10h79.616v-10a25 25 0 0 0 -25-25z" fill="#fd637b"/><path d="m52 66h24a0 0 0 0 1 0 0v20.75a12 12 0 0 1 -12 12 12 12 0 0 1 -12-12v-20.75a0 0 0 0 1 0 0z" fill="#e58f8b"/><path d="m72.39 6.5h-16.78a25 25 0 0 0 -25 25v15.3h66.78v-15.3a25 25 0 0 0 -25-25z" fill="#537980"/><circle cx="93.246" cy="47.042" fill="#e58f8b" r="8" transform="matrix(.983 -.183 .183 .983 -7.044 17.893)"/><circle cx="34.754" cy="47.042" fill="#e58f8b" r="8" transform="matrix(.983 -.183 .183 .983 -8.036 7.169)"/><path d="m93.246 39.042v14.087a29.246 29.246 0 0 1 -58.492 0v-14.078c13.97 0 34.774-6.882 40.779-10.782 8.374 9.993 17.713 10.773 17.713 10.773z" fill="#fcb49c"/><g><path d="m67 68.999h-6l-1.125-14.5h8.25z" fill="#d8d8d8"/><g fill="#eaeaf0"><path d="m70 56.249h-12a1.75 1.75 0 0 1 0-3.5h12a1.75 1.75 0 0 1 0 3.5z"/><path d="m59.5 67.374h9v6h-9z"/></g></g></g><g fill="#001d38"><path d="m103.81 109.75a1.751 1.751 0 0 0 -1.75 1.75v8.25h-76.12v-8.25a23.276 23.276 0 0 1 23.25-23.25h1.146a13.746 13.746 0 0 0 27.328 0h1.146a23.188 23.188 0 0 1 17.941 8.463 1.75 1.75 0 1 0 2.7-2.228 26.68 26.68 0 0 0 -20.641-9.735h-1.06v-3.85a31.06 31.06 0 0 0 17.038-24.229 9.745 9.745 0 0 0 4.352-17.387v-7.784a26.926 26.926 0 0 0 -.651-5.891 1.75 1.75 0 1 0 -3.415.767 23.391 23.391 0 0 1 .566 5.124v6.1a9.608 9.608 0 0 0 -2.256-.3c-.223-.023-8.818-.974-16.51-10.152a1.749 1.749 0 0 0 -2.294-.348c-5.526 3.588-26.088 10.475-39.754 10.5-.218 0-.433 0-.673.013a9.97 9.97 0 0 0 -1.793.281v-6.094a23.276 23.276 0 0 1 23.25-23.25h16.78a23.143 23.143 0 0 1 19.718 10.922 1.75 1.75 0 1 0 2.966-1.859 26.623 26.623 0 0 0 -22.684-12.563h-16.78a26.78 26.78 0 0 0 -26.75 26.75v7.771a9.92 9.92 0 0 0 -1.411 1.312 9.752 9.752 0 0 0 5.765 16.087 30.887 30.887 0 0 0 .762 4.191 1.75 1.75 0 0 0 3.39-.87 27.594 27.594 0 0 1 -.863-6.863v-12.36c13.462-.494 31.638-6.431 38.664-10.254 6.478 7.167 13.3 9.359 16.33 10.009v12.6a27.5 27.5 0 0 1 -51.382 13.639 1.75 1.75 0 1 0 -3.038 1.738 31.061 31.061 0 0 0 13.173 12.4v3.85h-1.06a26.78 26.78 0 0 0 -26.75 26.75v10a1.751 1.751 0 0 0 1.75 1.75h79.62a1.751 1.751 0 0 0 1.75-1.75v-10a1.751 1.751 0 0 0 -1.75-1.75zm-75.293-62.327a6.238 6.238 0 0 1 4.483-6.378v12.007a6.253 6.253 0 0 1 -4.483-5.629zm66.483 5.62v-12a6.23 6.23 0 0 1 1.41.616c.011.008.023.013.034.02a6.247 6.247 0 0 1 -1.444 11.364zm-31 31.082a30.861 30.861 0 0 0 10.25-1.749v4.374a10.25 10.25 0 0 1 -20.5 0v-4.384a30.866 30.866 0 0 0 10.25 1.759z"/><path d="m100 101.915a23.233 23.233 0 0 1 1.219 3.363 1.752 1.752 0 0 0 1.686 1.283 1.772 1.772 0 0 0 .469-.064 1.751 1.751 0 0 0 1.218-2.155 26.561 26.561 0 0 0 -1.4-3.872 1.75 1.75 0 1 0 -3.192 1.445z"/><path d="m48.658 11.948a20.7 20.7 0 0 0 -6.228 3.536 1.75 1.75 0 0 0 2.227 2.7 17.161 17.161 0 0 1 5.176-2.94 1.75 1.75 0 1 0 -1.175-3.3z"/><path d="m70 56.249a1.75 1.75 0 0 0 0-3.5h-12a1.75 1.75 0 0 0 0 3.5h.26l.727 9.46a1.745 1.745 0 0 0 -1.237 1.665v6a1.751 1.751 0 0 0 1.75 1.75h9a1.751 1.751 0 0 0 1.75-1.75v-6a1.745 1.745 0 0 0 -1.237-1.665l.727-9.46zm-4.491 9.375h-3.018l-.721-9.374h4.46zm1.241 6h-5.5v-2.5h5.5z"/><path d="m99.485 82.817-9.28-6.509a1.75 1.75 0 0 0 -2.01 2.865l9.28 6.51a1.75 1.75 0 1 0 2.01-2.866z"/><path d="m92.378 70.976a1.748 1.748 0 0 0 1.038 2.246l9.29 3.42a1.728 1.728 0 0 0 .6.108 1.75 1.75 0 0 0 .605-3.392l-9.29-3.42a1.749 1.749 0 0 0 -2.243 1.038z"/><path d="m28.087 85.255a1.751 1.751 0 0 0 2.438.428l9.28-6.51a1.75 1.75 0 0 0 -2.01-2.865l-9.28 6.509a1.751 1.751 0 0 0 -.428 2.438z"/><path d="m24.69 76.75a1.728 1.728 0 0 0 .6-.108l9.29-3.42a1.75 1.75 0 1 0 -1.209-3.284l-9.29 3.42a1.75 1.75 0 0 0 .605 3.392z"/><path d="m54 47.977a1.75 1.75 0 0 0 -1.68-3.071c-2.072 1.133-4.937.579-7.3-1.409a1.75 1.75 0 1 0 -2.255 2.676 11.3 11.3 0 0 0 7.19 2.81 8.374 8.374 0 0 0 4.045-1.006z"/><path d="m78.046 48.983a11.3 11.3 0 0 0 7.19-2.81 1.75 1.75 0 1 0 -2.255-2.673c-2.362 1.988-5.228 2.543-7.3 1.409a1.75 1.75 0 0 0 -1.681 3.068 8.374 8.374 0 0 0 4.046 1.006z"/></g></g></svg>