<?xml version="1.0" encoding="UTF-8"?>
<svg xmlns="http://www.w3.org/2000/svg" xmlns:xlink="http://www.w3.org/1999/xlink" version="1.1" id="Capa_1" x="0px" y="0px" viewBox="0 0 512 512" style="enable-background:new 0 0 512 512;" xml:space="preserve" width="512" height="512">
<g>
	<g>
		<rect x="149.44" y="368.098" style="fill:#DCF2F6;" width="55.721" height="45.388"/>
		<path style="fill:#EBAE9D;" d="M274.271,432.883l21.185,36.773l148.054-70.996c-44.396-76.897,51.251-101.211,51.251-228.639&#10;&#9;&#9;&#9;c0-29.617-9.944-69.895-30.121-100.272C433.25,32.472,383.038,7.5,312.97,7.5c-97.215,0-188.247,52.824-188.247,163.813&#10;&#9;&#9;&#9;c0,17.189-3.202,32.33-14.521,44.41l-29.696,31.692c-4.072,4.346-6.547,9.481-7.567,14.787c0,18.105,31.536,39.676,31.536,39.676&#10;&#9;&#9;&#9;l-4.29,20.356c54.168,16.909,82.127,39.656,92.479,60.02c8.268,11.926,0.176,21.231-11.877,21.231c-19.315,0-45,0-45,0&#10;&#9;&#9;&#9;l29.666,51.383c9.557,5.961,26.235,9.81,47.758-2.616L274.271,432.883z"/>
		<path style="fill:#E09380;" d="M88.359,271.983c-5.702-2.613-10.908-5.971-15.419-9.781c-2.491,12.957,3.743,26.942,16.962,32.998&#10;&#9;&#9;&#9;l14.575,6.678l1.853-8.794c1.446-6.861-2.055-13.809-8.429-16.73L88.359,271.983z"/>
		<path style="fill:#E09380;" d="M206.951,441.384c-21.523,12.426-34.6,13.484-41.497,13.484&#10;&#9;&#9;&#9;c12.426,21.523,35.14,20.552,56.663,8.126c0,0,40.406-23.328,52.154-30.111c6.248-3.607,8.683-13.603,9.594-22.171&#10;&#9;&#9;&#9;c0.647-6.086-5.912-10.322-11.213-7.261L206.951,441.384z"/>
		<path style="fill:#E09380;" d="M504.5,184.153c0-41.861-13.085-82.608-39.86-114.404c13.31,25.728,19.86,54.787,19.86,84.404&#10;&#9;&#9;&#9;c0,147.726-89.757,157.354-61.214,226.512c2.888,6.996,0.243,15.048-6.312,18.832l-121.518,70.158l14.313,24.844l151.041-87.203&#10;&#9;&#9;&#9;c0,0-1.51-2.614-10.99-19.035C414.28,326.704,504.5,311.581,504.5,184.153z"/>
		<path style="fill:#BFE2E6;" d="M182.314,130.278c0,13.084,3.893,24.852,10.897,35.123c21.783,21.783,70.287,36.888,110.697,36.888&#10;&#9;&#9;&#9;c72.677,0,131.593-31.052,131.593-82.01c0-13.084-5.442-29.668-20.897-45.122c-24.139-17.284-60.287-26.888-100.697-26.888&#10;&#9;&#9;&#9;C241.23,48.268,182.314,79.32,182.314,130.278z"/>
		<path style="fill:#9BB9C3;" d="M293.907,192.288c-40.409,0-76.557-9.604-100.697-26.888c20.274,29.73,66.68,46.888,120.697,46.888&#10;&#9;&#9;&#9;c72.677,0,131.593-31.052,131.593-82.01c0-22.625-11.621-41.321-30.897-55.122c7.004,10.271,10.897,22.038,10.897,35.122&#10;&#9;&#9;&#9;C425.5,161.236,366.584,192.288,293.907,192.288z"/>
		<path style="fill:#EEF9FA;" d="M336.188,132.373c0-3.267-1.589-14.008-5.543-21.172c-3.192-5.498-6.774-11.22-10.218-17.303&#10;&#9;&#9;&#9;c-2.879-5.085-10.187-5.039-13.067,0.045c-10.996,19.41-23.398,35.162-19.935,51.603c0.347,1.646,0.863,3.227,1.498,4.746&#10;&#9;&#9;&#9;c3.994,6.625,12.953,9.37,15.58,9.717C321.596,162.265,336.188,149.023,336.188,132.373z"/>
		<path style="fill:#DCF2F6;" d="M330.645,111.201c1.046,3.637,1.642,7.246,1.642,10.862c0,18.428-16.149,33.083-35.068,30.587&#10;&#9;&#9;&#9;c-2.907-0.384-5.688-1.202-8.297-2.358c3.642,8.704,11.743,15.097,21.297,16.358c16.594,2.19,30.76-10.665,30.76-26.829&#10;&#9;&#9;&#9;C340.98,130.491,336.462,121.22,330.645,111.201z"/>
		<path style="fill:#E09380;" d="M100.187,322.235l-0.877,4.164c-1.937,9.191,3.955,18.206,13.146,20.143&#10;&#9;&#9;&#9;c15.061,3.175,27.672,6.678,38.15,10.34l34.689,17.672c3.235,2.64,5.655,5.228,7.371,7.702&#10;&#9;&#9;&#9;C193.538,366.98,185.839,341.63,100.187,322.235z"/>
		<path style="fill:#F6C4C8;" d="M136.903,431.765c6.943-19.334,22.742-56.708,33.312-66.696c-5.491-2.77-11.978-5.521-19.609-8.188&#10;&#9;&#9;&#9;c0,0-27.823,26.808-34.351,60.867c-1.098,5.727,0.563,10.554,3.648,14.017H136.903z"/>
		<path style="fill:#E6989E;" d="M170.215,365.069c-14.824,6.915-27.474,27.827-36.834,53.892&#10;&#9;&#9;&#9;c-2.808,7.82-8.067,12.087-13.478,12.804c6.938,7.788,21.103,8.656,27.478-2.804c8.279-14.885,16.51-44.944,37.916-54.411&#10;&#9;&#9;&#9;C181.473,371.431,176.498,368.238,170.215,365.069z"/>
	</g>
	<g>
		<path style="fill:none;stroke:#000000;stroke-width:15;stroke-linecap:round;stroke-linejoin:round;stroke-miterlimit:10;" d="&#10;&#9;&#9;&#9;M344.41,474.5l-34.641,20l-35.498-61.617l-52.154,30.111c-21.523,12.426-44.237,13.397-56.663-8.126l-15.453-26.765"/>
		<path style="fill:none;stroke:#000000;stroke-width:15;stroke-linecap:round;stroke-linejoin:round;stroke-miterlimit:10;" d="&#10;&#9;&#9;&#9;M484.659,275.559c-24.266,50.008-59.273,70.381-34.839,112.703c9.48,16.421,10.99,19.035,10.99,19.035l-90.756,52.398"/>
		<path style="fill:none;stroke:#000000;stroke-width:15;stroke-linecap:round;stroke-linejoin:round;stroke-miterlimit:10;" d="&#10;&#9;&#9;&#9;M125.668,152.156C135.556,54.237,221.528,7.5,312.97,7.5c129.834,0,191.53,85.715,191.53,176.653&#10;&#9;&#9;&#9;c0,26.441-3.884,48.046-9.724,66.234"/>
		<path style="fill:none;stroke:#000000;stroke-width:15;stroke-linecap:round;stroke-linejoin:round;stroke-miterlimit:10;" d="&#10;&#9;&#9;&#9;M162.042,403.486c0,0,8.173,0,18.747,0c23.636,0,32.082-35.779-68.333-56.945c-9.191-1.937-15.083-10.952-13.146-20.143&#10;&#9;&#9;&#9;l5.167-24.52l-14.575-6.678c-18.633-8.538-23.409-32.83-9.395-47.786l29.696-31.692c6.917-7.382,10.803-15.908,12.779-25.345"/>
		<path style="fill:none;stroke:#000000;stroke-width:15;stroke-linecap:round;stroke-linejoin:round;stroke-miterlimit:10;" d="&#10;&#9;&#9;&#9;M119.093,148.952c21.128,20.146,56.202,28.405,77.812,24.248"/>
		<path style="fill:none;stroke:#000000;stroke-width:15;stroke-linecap:round;stroke-linejoin:round;stroke-miterlimit:10;" d="&#10;&#9;&#9;&#9;M150.605,356.881c0,0-27.823,26.808-34.351,60.867c-3.566,18.606,21.917,27.77,31.126,11.214&#10;&#9;&#9;&#9;c8.279-14.885,16.509-44.943,37.915-54.41"/>
		<path style="fill:none;stroke:#000000;stroke-width:15;stroke-linecap:round;stroke-linejoin:round;stroke-miterlimit:10;" d="&#10;&#9;&#9;&#9;M309.771,317.462c3.438,10.27,12.26,17.577,22.601,17.577c26.692,0,57.83-37.433,57.83-77.231&#10;&#9;&#9;&#9;c0-29.362-17.273-47.361-40.022-47.361c-22.596,0-35.705,16.464-40.409,34.019"/>
		<path style="fill:none;stroke:#000000;stroke-width:15;stroke-linecap:round;stroke-linejoin:round;stroke-miterlimit:10;" d="&#10;&#9;&#9;&#9;M148.468,250.299c0,0,8.749,14.601,24.191,23.517"/>
		
			<line style="fill:none;stroke:#000000;stroke-width:15;stroke-linecap:round;stroke-linejoin:round;stroke-miterlimit:10;" x1="175.686" y1="217.447" x2="175.686" y2="237.374"/>
		<path style="fill:none;stroke:#000000;stroke-width:15;stroke-linecap:round;stroke-linejoin:round;stroke-miterlimit:10;" d="&#10;&#9;&#9;&#9;M128.18,481.642c-2.971,13.086-14.666,22.858-28.651,22.858c-13.985,0-25.681-9.772-28.651-22.858l0,0&#10;&#9;&#9;&#9;c-11.354,7.153-26.534,5.793-36.423-4.097c-9.889-9.889-11.249-25.069-4.097-36.423C17.272,438.152,7.5,426.457,7.5,412.471&#10;&#9;&#9;&#9;c0-13.985,9.772-25.68,22.858-28.651"/>
		<path style="fill:none;stroke:#000000;stroke-width:14;stroke-linecap:round;stroke-linejoin:round;stroke-miterlimit:10;" d="&#10;&#9;&#9;&#9;M254.438,204.496c-42.797-12.221-72.125-38.265-72.125-74.218c0-50.958,58.916-82.01,131.593-82.01S445.5,79.32,445.5,130.278&#10;&#9;&#9;&#9;s-58.916,82.01-131.593,82.01c-9.703,0-19.161-0.553-28.266-1.634"/>
		<path style="fill:none;stroke:#000000;stroke-width:14;stroke-linecap:round;stroke-linejoin:round;stroke-miterlimit:10;" d="&#10;&#9;&#9;&#9;M340.98,139.82c0,16.164-14.166,29.02-30.76,26.829c-11.22-1.481-20.462-10.029-22.795-21.103&#10;&#9;&#9;&#9;c-3.463-16.441,8.94-32.193,19.935-51.603c2.88-5.085,10.188-5.13,13.067-0.045C330.148,111.066,340.98,125.372,340.98,139.82z"/>
	</g>
</g>















</svg>
