<svg id="svg5" height="512" viewBox="0 0 21 21.5" width="512" xmlns="http://www.w3.org/2000/svg" xmlns:svg="http://www.w3.org/2000/svg"><g id="layer6" transform="translate(-81.5 -1.5)"><g id="icon-shock"><path id="path50718" d="m102 12a10 10 0 0 1 -10 10 10 10 0 0 1 -10-10 10 10 0 0 1 10-10 10 10 0 0 1 10 10z" fill="#ffd764" stroke-linecap="round" stroke-linejoin="round"/><path id="path50709" d="m95.441406 2.6113281a10.174631 10.174631 0 0 1 5.289064 8.9023439 10.174631 10.174631 0 0 1 -4.23047 8.238281v1.154297a10 10 0 0 0 5.5-8.90625 10 10 0 0 0 -6.558594-9.3886719z" fill="#ffb751"/><path id="path50706" d="m91.5 11.5h1a4 4 45 0 1 4 4v6a1 1 135 0 1 -1 1h-7a1 1 45 0 1 -1-1v-6a4 4 135 0 1 4-4z" fill="#901c0f"/><path id="path50703" d="m96.5 16.496094c-3.995196.02043-7.225964 2.677164-7.226562 5.953125l.042968.050781h6.183594a1 1 0 0 0 1-1z" fill="#ff5440"/><path id="path50700" d="m96.5 16.496094c-.305715.0016-.606685.0212-.902344.05273.07916.8504.355015 4.956538-1.722656 5-1.677825.0351-3.580557.01726-4.519531.0059-.05362.291478-.08198.590799-.08203.894531l.042967.050745h6.183594a1 1 0 0 0 1-1z" fill="#e0230d"/><g stroke-linecap="round" stroke-linejoin="round"><path id="path50712" d="m88.155408 8.8277035a1.4527028 1.4527028 0 0 1 -1.452703 1.4527025 1.4527028 1.4527028 0 0 1 -1.452702-1.4527025 1.4527028 1.4527028 0 0 1 1.452702-1.4527028 1.4527028 1.4527028 0 0 1 1.452703 1.4527028z" fill="#fafafa"/><path id="path50715" d="m97.452703 8.8277035a1.4527028 1.4527028 0 0 1 -1.452703 1.4527025 1.4527028 1.4527028 0 0 1 -1.452703-1.4527025 1.4527028 1.4527028 0 0 1 1.452703-1.4527028 1.4527028 1.4527028 0 0 1 1.452703 1.4527028z" fill="#fafafa"/><path id="path49868" d="m92 1.5c-5.793061 0-10.5 4.7069382-10.5 10.5 0 2.896531 1.176612 5.524269 3.076172 7.423828.47489.47489.994185.905854 1.552734 1.283203.397874.277608.64197.404127.871094.529297v.263672c0 .822504.677496 1.5 1.5 1.5h7c.822504 0 1.5-.677496 1.5-1.5v-.263672c.309048-.174771.590285-.345908.871135-.529291.558551-.377349 1.077844-.808313 1.552734-1.283203 1.899441-1.899577 3.076131-4.527303 3.076131-7.423834 0-5.7930618-4.706939-10.5-10.5-10.5zm0 1c5.252622 0 9.5 4.2473778 9.5 9.5 0 2.626311-1.06348 4.997072-2.783203 6.716797-.429931.429931-.900795.818678-1.40625 1.160156-.102135.069-.20566.135959-.310547.201172v-4.578125c0-2.479356-2.020644-4.5-4.5-4.5h-1c-2.479356 0-4.5 2.020644-4.5 4.5v4.578125c-.104887-.06521-.208412-.132171-.310547-.201172-.505456-.34148-.976319-.730225-1.40625-1.160156-1.719725-1.719725-2.783203-4.090486-2.783203-6.716797 0-5.2526222 4.247378-9.5 9.5-9.5zm-5.296875 4.375c-1.072524.0000006-1.953125.8806008-1.953125 1.953125 0 1.072524.880601 1.953124 1.953125 1.953125 1.072525 0 1.953125-.8806005 1.953125-1.953125 0-1.0725247-.8806-1.9531251-1.953125-1.953125zm9.296875 0c-1.072525-.0000001-1.953125.8806003-1.953125 1.953125 0 1.0725245.8806 1.953125 1.953125 1.953125s1.953125-.8806005 1.953125-1.953125c0-1.0725247-.8806-1.9531251-1.953125-1.953125zm-9.296875 1c.532085-.0000001.953125.4210399.953125.953125 0 .532085-.42104.9531251-.953125.953125-.532085-.0000003-.953125-.4210403-.953125-.953125 0-.5320848.42104-.9531247.953125-.953125zm9.296875 0c.532085-.0000001.953125.4210399.953125.953125 0 .532085-.42104.9531251-.953125.953125-.532085.0000001-.953125-.42104-.953125-.953125 0-.5320851.42104-.9531251.953125-.953125zm-4.5 4.125h1c1.938917 0 3.5 1.561083 3.5 3.5v.494141c-3.935685-.000397-7.225947 2.634628-7.226562 6.005859h-.273438c-.282065 0-.5-.217935-.5-.5v-6c0-1.938917 1.561083-3.5 3.5-3.5zm4.5 4.994141v4.505859c0 .282065-.217935.5-.5.5h-5.726562c.000495-2.711163 2.733353-5.006211 6.226562-5.005859z" fill="#401510"/></g></g></g></svg>