<?xml version="1.0" encoding="UTF-8" standalone="no"?>
<!-- Created with Inkscape (http://www.inkscape.org/) -->

<svg
   version="1.1"
   id="svg4221"
   xml:space="preserve"
   width="682.66669"
   height="682.66669"
   viewBox="0 0 682.66669 682.66669"
   xmlns="http://www.w3.org/2000/svg"
   xmlns:svg="http://www.w3.org/2000/svg"><defs
     id="defs4225"><clipPath
       clipPathUnits="userSpaceOnUse"
       id="clipPath4235"><path
         d="M 0,512 H 512 V 0 H 0 Z"
         id="path4233" /></clipPath></defs><g
     id="g4227"
     transform="matrix(1.3333333,0,0,-1.3333333,0,682.66667)"><g
       id="g4229"><g
         id="g4231"
         clip-path="url(#clipPath4235)"><g
           id="g4237"
           transform="translate(229.9292,169.5)"><path
             d="m 0,0 v -45 c 0,-2.761 2.239,-5 5,-5 h 50 c 44.183,0 80,-35.817 80,-80 v -12 c 0,-11.046 -8.954,-20 -20,-20 h -317 c -11.046,0 -20,8.954 -20,20 v 12 c 0,44.183 35.817,80 80,80 h 50 c 2.761,0 5,2.239 5,5 V 0 Z"
             style="fill:#fbbd80;fill-opacity:1;fill-rule:nonzero;stroke:none"
             id="path4239" /></g><g
           id="g4241"
           transform="translate(364.9302,39.5)"><path
             d="m 0,0 v -12 c 0,-11.05 -8.96,-20 -20,-20 h -30 c 11.04,0 20,8.95 20,20 V 0 c 0,44.18 -35.82,80 -80,80 h 30 C -35.82,80 0,44.18 0,0"
             style="fill:#f4aa73;fill-opacity:1;fill-rule:nonzero;stroke:none"
             id="path4243" /></g><g
           id="g4245"
           transform="translate(293.9292,313.5)"><path
             d="M 0,0 H 26.5 C 43.345,0 57,-13.655 57,-30.5 57,-47.345 43.345,-61 26.5,-61 H 0 Z"
             style="fill:#fbbd80;fill-opacity:1;fill-rule:nonzero;stroke:none"
             id="path4247" /></g><g
           id="g4249"
           transform="translate(88.9292,252.5)"><path
             d="M 0,0 H -36.5 C -53.345,0 -67,13.655 -67,30.5 -67,47.345 -53.345,61 -36.5,61 H 0 Z"
             style="fill:#fbbd80;fill-opacity:1;fill-rule:nonzero;stroke:none"
             id="path4251" /></g><g
           id="g4253"
           transform="translate(303.9292,373.5)"><path
             d="M 0,0 V -101.5 C 0,-166.394 -52.606,-219 -117.5,-219 c -64.894,0 -117.5,52.606 -117.5,117.5 V 0 C -235,0 0,1.978 0,0"
             style="fill:#ffd18d;fill-opacity:1;fill-rule:nonzero;stroke:none"
             id="path4255" /></g><g
           id="g4257"
           transform="translate(303.9302,373.5)"><path
             d="M 0,0 V -101.5 C 0,-166.39 -52.61,-219 -117.5,-219 c -5.08,0 -10.09,0.32 -15,0.94 57.8,7.37 102.5,56.75 102.5,116.56 V 0 C -30,0.55 -48.22,0.8 -74.51,0.86 -33.13,0.93 0,0.74 0,0"
             style="fill:#fbbd80;fill-opacity:1;fill-rule:nonzero;stroke:none"
             id="path4259" /></g><g
           id="g4261"
           transform="translate(73.9292,102.5)"><path
             d="M 0,0 C 0,-6.9 -2.8,-13.16 -7.32,-17.68 -11.84,-22.2 -18.1,-25 -25,-25 c -9.67,0 -18.05,5.48 -22.2,13.51 10.79,12.82 25.54,22.2 42.37,26.25 C -1.79,10.63 0,5.52 0,0"
             style="fill:#ff8d95;fill-opacity:1;fill-rule:nonzero;stroke:none"
             id="path4263" /></g><g
           id="g4265"
           transform="translate(225.9292,466.4648)"><path
             d="m 0,0 v 28.035 c 0,5.523 -4.477,10 -10,10 h -10 c -11.046,0 -20,-8.954 -20,-20 L -50,-0.153 Z"
             style="fill:#514751;fill-opacity:1;fill-rule:nonzero;stroke:none"
             id="path4267" /></g><g
           id="g4269"
           transform="translate(145.9292,465.7007)"><path
             d="m 0,0 v 28.799 c 0,5.523 4.477,10 10,10 h 10 c 11.046,0 20,-8.954 20,-20 V 1.439 Z"
             style="fill:#615260;fill-opacity:1;fill-rule:nonzero;stroke:none"
             id="path4271" /></g><g
           id="g4273"
           transform="translate(333.9302,369.5)"><path
             d="M 0,0 V -59.15 C -4.07,-57.13 -8.65,-56 -13.5,-56 H -30 v -30.5 h -10 c -11.05,0 -20,8.95 -20,20 v 6 c 0,8.28 -6.72,15 -15,15 h -27.35 c -6.13,0 -11.64,3.74 -13.92,9.43 l -2.46,6.14 c -2.28,5.7 -7.79,9.43 -13.93,9.43 h -29.69 c -6.13,0 -11.64,-3.73 -13.92,-9.43 l -2.46,-6.14 c -2.28,-5.69 -7.79,-9.43 -13.93,-9.43 H -220 c -8.28,0 -15,-6.72 -15,-15 v -6 c 0,-7.4 -4.02,-13.86 -10,-17.31 -2.94,-1.71 -6.36,-2.69 -10,-2.69 h -10 V -56 h -16.5 c -4.85,0 -9.43,-1.13 -13.5,-3.15 V 0 c 0,57.99 47.01,105 105,105 h 85 C -47.01,105 0,57.99 0,0"
             style="fill:#736572;fill-opacity:1;fill-rule:nonzero;stroke:none"
             id="path4275" /></g><g
           id="g4277"
           transform="translate(333.9302,369.5)"><path
             d="M 0,0 V -59.15 C -4.07,-57.13 -8.65,-56 -13.5,-56 H -30 V 0 c 0,57.99 -47.01,105 -105,105 h 30 C -47.01,105 0,57.99 0,0"
             style="fill:#615260;fill-opacity:1;fill-rule:nonzero;stroke:none"
             id="path4279" /></g><g
           id="g4281"
           transform="translate(308.7778,44.9829)"><path
             d="m 0,0 48.269,11.772 c 6.942,1.694 14.23,1.559 21.05,-0.574 9.15,-2.862 18.881,-4.406 28.974,-4.406 53.572,0 97,43.429 97,97 v 0 c 0,53.572 -43.428,97 -97,97 -53.572,0 -97,-43.428 -97,-97 v 0 c 0,-9.757 1.443,-19.177 4.125,-28.06 C 7.45,69 7.565,61.834 5.898,55.001 L -6.042,6.042 C -6.931,2.4 -3.643,-0.888 0,0"
             style="fill:#baf39a;fill-opacity:1;fill-rule:nonzero;stroke:none"
             id="path4283" /></g><g
           id="g4285"
           transform="translate(504.0698,148.7803)"><path
             d="M 0,0 C 0,-26.79 -10.86,-51.04 -28.41,-68.59 -45.97,-86.14 -70.21,-97 -97,-97 c -5.1,0 -10.12,0.39 -15.01,1.16 20.79,3.22 39.38,13.04 53.6,27.25 C -40.86,-51.04 -30,-26.79 -30,0 -30,26.78 -40.86,51.04 -58.41,68.59 -72.62,82.8 -91.22,92.62 -112,95.84 c 4.89,0.77 9.9,1.16 15,1.16 26.79,0 51.03,-10.86 68.59,-28.41 C -10.86,51.04 0,26.78 0,0"
             style="fill:#9ae59c;fill-opacity:1;fill-rule:nonzero;stroke:none"
             id="path4287" /></g><g
           id="g4289"
           transform="translate(407.042,181.3164)"><path
             d="M 0,0 V 0 C 23.902,0 32.5,-14.55 32.5,-32.5 32.5,-50.449 23.833,-65 0,-65 c -23.833,0 -32.5,14.551 -32.5,32.5 0,17.95 8.667,32.5 32.5,32.5"
             style="fill:#fcf1f2;fill-opacity:1;fill-rule:nonzero;stroke:none"
             id="path4291" /></g><g
           id="g4293"
           transform="translate(239.9292,59.5)"><path
             d="m 0,0 v 0 c -8.284,0 -15,6.716 -15,15 0,8.284 6.716,15 15,15 C 8.284,30 15,23.284 15,15 15,6.716 8.284,0 0,0"
             style="fill:#ff8d95;fill-opacity:1;fill-rule:nonzero;stroke:none"
             id="path4295" /></g><g
           id="g4297"
           transform="translate(239.9292,7.5)"><path
             d="m 0,0 h -60 c 0,8.28 3.36,15.78 8.79,21.21 5.43,5.43 12.93,8.79 21.21,8.79 8.28,0 15.78,-3.36 21.21,-8.79 C -3.36,15.78 0,8.28 0,0"
             style="fill:#ff8d95;fill-opacity:1;fill-rule:nonzero;stroke:none"
             id="path4299" /></g><g
           id="g4301"
           transform="translate(270.4292,30)"><path
             d="m 0,0 c -5.514,0 -10,4.486 -10,10 0,5.514 4.486,10 10,10 C 5.514,20 10,15.514 10,10 10,4.486 5.514,0 0,0"
             style="fill:#ff8d95;fill-opacity:1;fill-rule:nonzero;stroke:none"
             id="path4303" /></g><g
           id="g4305"
           transform="translate(100.9292,37.5)"><path
             d="m 0,0 v 0 c -8.284,0 -15,6.716 -15,15 0,8.284 6.716,15 15,15 C 8.284,30 15,23.284 15,15 15,6.716 8.284,0 0,0"
             style="fill:#ff8d95;fill-opacity:1;fill-rule:nonzero;stroke:none"
             id="path4307" /></g><g
           id="g4309"
           transform="translate(303.9292,313.5)"><path
             d="M 0,0 V -41.5 C 0,-106.394 -52.606,-159 -117.5,-159 -182.394,-159 -235,-106.394 -235,-41.5 V 0"
             style="fill:none;stroke:#000000;stroke-width:15;stroke-linecap:round;stroke-linejoin:round;stroke-miterlimit:10;stroke-dasharray:none;stroke-opacity:1"
             id="path4311" /></g><g
           id="g4313"
           transform="translate(303.9292,313.5)"><path
             d="M 0,0 H 16.5 C 33.345,0 47,-13.655 47,-30.5 47,-47.345 33.345,-61 16.5,-61 H 0"
             style="fill:none;stroke:#000000;stroke-width:15;stroke-linecap:round;stroke-linejoin:round;stroke-miterlimit:10;stroke-dasharray:none;stroke-opacity:1"
             id="path4315" /></g><g
           id="g4317"
           transform="translate(303.9292,283)"><path
             d="M 0,0 H 17"
             style="fill:none;stroke:#000000;stroke-width:15;stroke-linecap:round;stroke-linejoin:round;stroke-miterlimit:10;stroke-dasharray:none;stroke-opacity:1"
             id="path4319" /></g><g
           id="g4321"
           transform="translate(68.9292,313.5)"><path
             d="M 0,0 H -16.5 C -33.345,0 -47,-13.655 -47,-30.5 -47,-47.345 -33.345,-61 -16.5,-61 H 0"
             style="fill:none;stroke:#000000;stroke-width:15;stroke-linecap:round;stroke-linejoin:round;stroke-miterlimit:10;stroke-dasharray:none;stroke-opacity:1"
             id="path4323" /></g><g
           id="g4325"
           transform="translate(67.9292,283)"><path
             d="M 0,0 H -16"
             style="fill:none;stroke:#000000;stroke-width:15;stroke-linecap:round;stroke-linejoin:round;stroke-miterlimit:10;stroke-dasharray:none;stroke-opacity:1"
             id="path4327" /></g><g
           id="g4329"
           transform="translate(69.3896,116.8569)"><path
             d="m 0,0 c 2.863,-4.058 4.54,-9.015 4.54,-14.357 0,-6.9 -2.8,-13.16 -7.32,-17.68 -4.52,-4.52 -10.781,-7.32 -17.68,-7.32 -9.243,0 -17.308,5.006 -21.626,12.461"
             style="fill:none;stroke:#000000;stroke-width:15;stroke-linecap:round;stroke-linejoin:round;stroke-miterlimit:10;stroke-dasharray:none;stroke-opacity:1"
             id="path4331" /></g><g
           id="g4333"
           transform="translate(149.8467,214.9668)"><path
             d="M 0,0 C 21.567,18.316 51.598,18.146 73.165,0"
             style="fill:none;stroke:#000000;stroke-width:15;stroke-linecap:round;stroke-linejoin:round;stroke-miterlimit:10;stroke-dasharray:none;stroke-opacity:1"
             id="path4335" /></g><g
           id="g4337"
           transform="translate(363.5825,54.1938)"><path
             d="m 0,0 c 0.884,-4.763 1.347,-9.674 1.347,-14.694 v -12 c 0,-11.046 -8.954,-20 -20,-20 h -317 c -11.046,0 -20,8.954 -20,20 v 12 c 0,44.183 35.817,80 80,80 h 50 c 2.761,0 5,2.239 5,5 v 35"
             style="fill:none;stroke:#000000;stroke-width:15;stroke-linecap:round;stroke-linejoin:round;stroke-miterlimit:10;stroke-dasharray:none;stroke-opacity:1"
             id="path4339" /></g><g
           id="g4341"
           transform="translate(229.9292,159.5)"><path
             d="m 0,0 v -35 c 0,-2.761 2.239,-5 5,-5 h 50 c 10.116,0 19.792,-1.877 28.702,-5.303"
             style="fill:none;stroke:#000000;stroke-width:15;stroke-linecap:round;stroke-linejoin:round;stroke-miterlimit:10;stroke-dasharray:none;stroke-opacity:1"
             id="path4343" /></g><g
           id="g4345"
           transform="translate(243.9292,283)"><path
             d="M 0,0 V -15"
             style="fill:none;stroke:#000000;stroke-width:15;stroke-linecap:round;stroke-linejoin:round;stroke-miterlimit:10;stroke-dasharray:none;stroke-opacity:1"
             id="path4347" /></g><g
           id="g4349"
           transform="translate(128.9292,283)"><path
             d="M 0,0 V -15"
             style="fill:none;stroke:#000000;stroke-width:15;stroke-linecap:round;stroke-linejoin:round;stroke-miterlimit:10;stroke-dasharray:none;stroke-opacity:1"
             id="path4351" /></g><g
           id="g4353"
           transform="translate(38.9292,334.5)"><path
             d="M 0,0 V -22"
             style="fill:none;stroke:#000000;stroke-width:15;stroke-linecap:round;stroke-linejoin:round;stroke-miterlimit:10;stroke-dasharray:none;stroke-opacity:1"
             id="path4355" /></g><g
           id="g4357"
           transform="translate(333.9292,312.5)"><path
             d="m 0,0 v 57 c 0,57.99 -47.01,105 -105,105 h -85 c -57.99,0 -105,-47.01 -105,-105"
             style="fill:none;stroke:#000000;stroke-width:15;stroke-linecap:round;stroke-linejoin:round;stroke-miterlimit:10;stroke-dasharray:none;stroke-opacity:1"
             id="path4359" /></g><g
           id="g4361"
           transform="translate(185.9292,476.312)"><path
             d="m 0,0 v 8.188 c 0,11.046 8.954,20 20,20 h 10 c 5.523,0 10,-4.477 10,-10 V 0.153"
             style="fill:none;stroke:#000000;stroke-width:15;stroke-linecap:round;stroke-linejoin:round;stroke-miterlimit:10;stroke-dasharray:none;stroke-opacity:1"
             id="path4363" /></g><g
           id="g4365"
           transform="translate(145.9292,475.7007)"><path
             d="m 0,0 v 18.799 c 0,5.523 4.477,10 10,10 h 10 c 11.046,0 20,-8.954 20,-20"
             style="fill:none;stroke:#000000;stroke-width:15;stroke-linecap:round;stroke-linejoin:round;stroke-miterlimit:10;stroke-dasharray:none;stroke-opacity:1"
             id="path4367" /></g><g
           id="g4369"
           transform="translate(68.9292,283)"><path
             d="M 0,0 H 10 C 21.045,0 30,8.954 30,19.999 V 26 c 0,8.285 6.716,15 15,15 h 27.345 c 6.133,10e-4 11.649,3.735 13.926,9.43 l 2.458,6.142 c 2.277,5.695 7.793,9.429 13.926,9.429 h 29.69 c 6.133,0 11.649,-3.734 13.926,-9.429 l 2.458,-6.142 c 2.277,-5.695 7.793,-9.429 13.926,-9.429 H 190 c 8.284,0 15,-6.716 15,-15.001 V 20 C 204.999,8.955 213.954,0 225,0 h 10"
             style="fill:none;stroke:#000000;stroke-width:15;stroke-linecap:round;stroke-linejoin:round;stroke-miterlimit:10;stroke-dasharray:none;stroke-opacity:1"
             id="path4371" /></g><g
           id="g4373"
           transform="translate(423.1938,244.4414)"><path
             d="m 0,0 c -5.244,0.877 -10.63,1.334 -16.123,1.334 -53.572,0 -97,-43.429 -97,-97 v -0.001 c 0,-9.757 1.443,-19.176 4.125,-28.059 2.032,-6.733 2.147,-13.899 0.48,-20.732 l -11.94,-48.958 c -0.889,-3.643 2.399,-6.931 6.042,-6.042 l 48.269,11.772 c 6.942,1.693 14.23,1.559 21.05,-0.574 9.15,-2.862 18.881,-4.406 28.974,-4.406 53.572,0 97,43.428 97,96.999 v 0.001 c 0,35.684 -19.269,66.867 -47.969,83.713"
             style="fill:none;stroke:#000000;stroke-width:15;stroke-linecap:round;stroke-linejoin:round;stroke-miterlimit:10;stroke-dasharray:none;stroke-opacity:1"
             id="path4375" /></g><g
           id="g4377"
           transform="translate(382.9458,124.6582)"><path
             d="M 0,0 -19.368,-19.368"
             style="fill:none;stroke:#000000;stroke-width:15;stroke-linecap:round;stroke-linejoin:round;stroke-miterlimit:10;stroke-dasharray:none;stroke-opacity:1"
             id="path4379" /></g><g
           id="g4381"
           transform="translate(431.2026,172.9146)"><path
             d="M 0,0 19.36,19.361"
             style="fill:none;stroke:#000000;stroke-width:15;stroke-linecap:round;stroke-linejoin:round;stroke-miterlimit:10;stroke-dasharray:none;stroke-opacity:1"
             id="path4383" /></g><g
           id="g4385"
           transform="translate(382.939,172.9146)"><path
             d="M 0,0 -19.361,19.361"
             style="fill:none;stroke:#000000;stroke-width:15;stroke-linecap:round;stroke-linejoin:round;stroke-miterlimit:10;stroke-dasharray:none;stroke-opacity:1"
             id="path4387" /></g><g
           id="g4389"
           transform="translate(431.1958,124.6577)"><path
             d="M 0,0 19.367,-19.367"
             style="fill:none;stroke:#000000;stroke-width:15;stroke-linecap:round;stroke-linejoin:round;stroke-miterlimit:10;stroke-dasharray:none;stroke-opacity:1"
             id="path4391" /></g><g
           id="g4393"
           transform="translate(374.5781,148.7827)"><path
             d="M 0,0 H -19.015"
             style="fill:none;stroke:#000000;stroke-width:15;stroke-linecap:round;stroke-linejoin:round;stroke-miterlimit:10;stroke-dasharray:none;stroke-opacity:1"
             id="path4395" /></g><g
           id="g4397"
           transform="translate(439.5781,148.7827)"><path
             d="M 0,0 H 19"
             style="fill:none;stroke:#000000;stroke-width:15;stroke-linecap:round;stroke-linejoin:round;stroke-miterlimit:10;stroke-dasharray:none;stroke-opacity:1"
             id="path4399" /></g><g
           id="g4401"
           transform="translate(407.0708,116.2905)"><path
             d="M 0,0 V -19.015"
             style="fill:none;stroke:#000000;stroke-width:15;stroke-linecap:round;stroke-linejoin:round;stroke-miterlimit:10;stroke-dasharray:none;stroke-opacity:1"
             id="path4403" /></g><g
           id="g4405"
           transform="translate(407.0708,116.2905)"><path
             d="M 0,0 V 0 C 23.902,0 32.5,14.551 32.5,32.5 32.5,50.449 23.833,65 0,65 -23.833,65 -32.5,50.449 -32.5,32.5 -32.5,14.551 -23.833,0 0,0 Z"
             style="fill:none;stroke:#000000;stroke-width:15;stroke-linecap:round;stroke-linejoin:round;stroke-miterlimit:10;stroke-dasharray:none;stroke-opacity:1"
             id="path4407" /></g><g
           id="g4409"
           transform="translate(407.0708,181.2754)"><path
             d="M 0,0 V 19.015"
             style="fill:none;stroke:#000000;stroke-width:15;stroke-linecap:round;stroke-linejoin:round;stroke-miterlimit:10;stroke-dasharray:none;stroke-opacity:1"
             id="path4411" /></g><g
           id="g4413"
           transform="translate(404.5708,148.7754)"><path
             d="M 0,0 C 0,1.381 1.119,2.5 2.5,2.5 3.88,2.5 5,1.381 5,0 5,-1.381 3.88,-2.5 2.5,-2.5 1.119,-2.5 0,-1.381 0,0 Z"
             style="fill:none;stroke:#000000;stroke-width:15;stroke-linecap:round;stroke-linejoin:round;stroke-miterlimit:10;stroke-dasharray:none;stroke-opacity:1"
             id="path4415" /></g><g
           id="g4417"
           transform="translate(239.9292,59.5)"><path
             d="m 0,0 v 0 c -8.284,0 -15,6.716 -15,15 0,8.284 6.716,15 15,15 C 8.284,30 15,23.284 15,15 15,6.716 8.284,0 0,0 Z"
             style="fill:none;stroke:#000000;stroke-width:15;stroke-linecap:round;stroke-linejoin:round;stroke-miterlimit:10;stroke-dasharray:none;stroke-opacity:1"
             id="path4419" /></g><g
           id="g4421"
           transform="translate(179.9561,8.7793)"><path
             d="m 0,0 c 0.327,7.771 3.614,14.782 8.763,19.931 5.43,5.43 12.93,8.79 21.21,8.79 8.28,0 15.78,-3.36 21.21,-8.79 5.218,-5.218 8.525,-12.348 8.775,-20.243"
             style="fill:none;stroke:#000000;stroke-width:15;stroke-linecap:round;stroke-linejoin:round;stroke-miterlimit:10;stroke-dasharray:none;stroke-opacity:1"
             id="path4423" /></g><g
           id="g4425"
           transform="translate(272.9292,40)"><path
             d="M 0,0 C 0,-1.381 -1.119,-2.5 -2.5,-2.5 -3.881,-2.5 -5,-1.381 -5,0 -5,1.381 -3.881,2.5 -2.5,2.5 -1.119,2.5 0,1.381 0,0 Z"
             style="fill:none;stroke:#000000;stroke-width:15;stroke-linecap:round;stroke-linejoin:round;stroke-miterlimit:10;stroke-dasharray:none;stroke-opacity:1"
             id="path4427" /></g><g
           id="g4429"
           transform="translate(100.9292,37.5)"><path
             d="m 0,0 v 0 c -8.284,0 -15,6.716 -15,15 0,8.284 6.716,15 15,15 C 8.284,30 15,23.284 15,15 15,6.716 8.284,0 0,0 Z"
             style="fill:none;stroke:#000000;stroke-width:15;stroke-linecap:round;stroke-linejoin:round;stroke-miterlimit:10;stroke-dasharray:none;stroke-opacity:1"
             id="path4431" /></g></g></g></g></svg>
